Oceane-Regular.ufo
<glyph name="numbersign" format="2">
  <advance width="289"/>
  <unicode hex="0023"/>
  <outline>
    <contour>
      <point x="195" y="257" type="line"/>
      <point x="364" y="257" type="line"/>
      <point x="403" y="374" type="line"/>
      <point x="235" y="374" type="line"/>
    </contour>
    <contour>
      <point x="533" y="629" type="curve"/>
      <point x="462" y="417" type="line"/>
      <point x="515" y="417" type="line"/>
      <point x="515" y="393"/>
      <point x="496" y="374"/>
      <point x="473" y="374" type="curve" smooth="yes"/>
      <point x="448" y="374" type="line"/>
      <point x="409" y="257" type="line"/>
      <point x="475" y="257" type="line"/>
      <point x="475" y="233"/>
      <point x="456" y="214"/>
      <point x="433" y="214" type="curve" smooth="yes"/>
      <point x="395" y="214" type="line"/>
      <point x="333" y="29" type="line" smooth="yes"/>
      <point x="327" y="11"/>
      <point x="310" y="0"/>
      <point x="292" y="0" type="curve" smooth="yes"/>
      <point x="288" y="0"/>
      <point x="283" y="-1"/>
      <point x="279" y="0" type="curve"/>
      <point x="350" y="214" type="line"/>
      <point x="181" y="214" type="line"/>
      <point x="120" y="29" type="line" smooth="yes"/>
      <point x="114" y="11"/>
      <point x="97" y="0"/>
      <point x="79" y="0" type="curve" smooth="yes"/>
      <point x="75" y="0"/>
      <point x="70" y="-1"/>
      <point x="66" y="0" type="curve"/>
      <point x="137" y="214" type="line"/>
      <point x="75" y="214" type="line"/>
      <point x="75" y="238"/>
      <point x="94" y="257"/>
      <point x="117" y="257" type="curve" smooth="yes"/>
      <point x="151" y="257" type="line"/>
      <point x="190" y="374" type="line"/>
      <point x="115" y="374" type="line"/>
      <point x="115" y="398"/>
      <point x="134" y="417"/>
      <point x="157" y="417" type="curve" smooth="yes"/>
      <point x="204" y="417" type="line"/>
      <point x="266" y="602" type="line" smooth="yes"/>
      <point x="272" y="620"/>
      <point x="288" y="631"/>
      <point x="306" y="631" type="curve" smooth="yes"/>
      <point x="310" y="631"/>
      <point x="315" y="630"/>
      <point x="319" y="629" type="curve"/>
      <point x="249" y="417" type="line"/>
      <point x="417" y="417" type="line"/>
      <point x="479" y="602" type="line" smooth="yes"/>
      <point x="485" y="620"/>
      <point x="502" y="631"/>
      <point x="520" y="631" type="curve" smooth="yes"/>
      <point x="524" y="631"/>
      <point x="529" y="630"/>
    </contour>
  </outline>
</glyph>
<glyph name="parenright" format="2">
  <advance width="306"/>
  <unicode hex="0029"/>
  <outline>
    <contour>
      <point x="117" y="631" type="curve" smooth="yes"/>
      <point x="194" y="542.5"/>
      <point x="232.5" y="431.75"/>
      <point x="232.5" y="321" type="curve" smooth="yes"/>
      <point x="232.5" y="210.25"/>
      <point x="194" y="99.5"/>
      <point x="117" y="11" type="curve" smooth="yes"/>
      <point x="110.667" y="3.61133"/>
      <point x="101.827" y="-0.15625"/>
      <point x="92.9795" y="-0.15625" type="curve" smooth="yes"/>
      <point x="85.0625" y="-0.15625"/>
      <point x="77.1396" y="2.86035"/>
      <point x="71" y="9" type="curve" smooth="yes"/>
      <point x="64" y="16" type="line"/>
      <point x="148" y="100"/>
      <point x="190" y="210.25"/>
      <point x="190" y="320.625" type="curve" smooth="yes"/>
      <point x="190" y="431"/>
      <point x="148" y="541.5"/>
      <point x="64" y="626" type="curve"/>
      <point x="71" y="633" type="line" smooth="yes"/>
      <point x="77.1396" y="639.14"/>
      <point x="85.0625" y="642.156"/>
      <point x="92.9795" y="642.156" type="curve" smooth="yes"/>
      <point x="101.827" y="642.156"/>
      <point x="110.667" y="638.389"/>
    </contour>
  </outline>
</glyph>
<glyph name="three" format="2">
  <advance width="510"/>
  <unicode hex="0033"/>
  <outline>
    <contour>
      <point x="335" y="339" type="curve"/>
      <point x="396" y="309"/>
      <point x="438" y="249"/>
      <point x="438" y="179" type="curve" smooth="yes"/>
      <point x="438" y="80"/>
      <point x="354" y="0"/>
      <point x="252" y="0" type="curve" smooth="yes"/>
      <point x="156" y="0"/>
      <point x="77" y="70"/>
      <point x="67" y="160" type="curve"/>
      <point x="84" y="160" type="line" smooth="yes"/>
      <point x="98" y="160"/>
      <point x="111" y="152"/>
      <point x="115" y="139" type="curve" smooth="yes"/>
      <point x="133" y="83"/>
      <point x="187" y="43"/>
      <point x="252" y="43" type="curve" smooth="yes"/>
      <point x="331" y="43"/>
      <point x="395" y="104"/>
      <point x="395" y="179" type="curve" smooth="yes"/>
      <point x="395" y="247"/>
      <point x="343" y="303"/>
      <point x="275" y="314" type="curve" smooth="yes"/>
      <point x="268" y="315"/>
      <point x="262" y="321"/>
      <point x="262" y="329" type="curve" smooth="yes"/>
      <point x="262" y="345" type="line" smooth="yes"/>
      <point x="262" y="352"/>
      <point x="267" y="359"/>
      <point x="275" y="360" type="curve" smooth="yes"/>
      <point x="330.255" y="371.051"/>
      <point x="371.94" y="420.266"/>
      <point x="371.94" y="478.746" type="curve" smooth="yes"/>
      <point x="371.94" y="483.769"/>
      <point x="371.633" y="488.859"/>
      <point x="371" y="494" type="curve" smooth="yes"/>
      <point x="364" y="548"/>
      <point x="320" y="591"/>
      <point x="266" y="597" type="curve" smooth="yes"/>
      <point x="261.363" y="597.523"/>
      <point x="256.767" y="597.778"/>
      <point x="252.223" y="597.778" type="curve" smooth="yes"/>
      <point x="196.003" y="597.778"/>
      <point x="147.953" y="558.737"/>
      <point x="135" y="506" type="curve" smooth="yes"/>
      <point x="132" y="491"/>
      <point x="118" y="480"/>
      <point x="103" y="480" type="curve" smooth="yes"/>
      <point x="90" y="480" type="line"/>
      <point x="90.9736" y="568.612"/>
      <point x="163.063" y="640.157"/>
      <point x="251.793" y="640.157" type="curve" smooth="yes"/>
      <point x="254.184" y="640.157"/>
      <point x="256.586" y="640.104"/>
      <point x="259" y="640" type="curve" smooth="yes"/>
      <point x="343" y="636"/>
      <point x="412" y="567"/>
      <point x="414" y="483" type="curve" smooth="yes"/>
      <point x="414.06" y="481.192"/>
      <point x="414.089" y="479.392"/>
      <point x="414.089" y="477.597" type="curve" smooth="yes"/>
      <point x="414.089" y="418.821"/>
      <point x="382.548" y="367.141"/>
    </contour>
  </outline>
</glyph>
<glyph name="five" format="2">
  <advance width="518"/>
  <unicode hex="0035"/>
  <outline>
    <contour>
      <point x="231" y="419" type="curve" smooth="yes"/>
      <point x="350" y="419"/>
      <point x="448" y="325"/>
      <point x="448" y="209" type="curve" smooth="yes"/>
      <point x="448" y="94"/>
      <point x="350" y="0"/>
      <point x="231" y="0" type="curve" smooth="yes"/>
      <point x="186" y="0"/>
      <point x="143" y="12"/>
      <point x="107" y="37" type="curve" smooth="yes"/>
      <point x="93" y="46"/>
      <point x="79" y="58"/>
      <point x="68" y="70" type="curve"/>
      <point x="77.4072" y="78.3008"/>
      <point x="88.958" y="82.6201"/>
      <point x="100.619" y="82.6201" type="curve" smooth="yes"/>
      <point x="110.03" y="82.6201"/>
      <point x="119.514" y="79.8066"/>
      <point x="128" y="74" type="curve" smooth="yes"/>
      <point x="129" y="73"/>
      <point x="130" y="73"/>
      <point x="130" y="72" type="curve" smooth="yes"/>
      <point x="160" y="52"/>
      <point x="194" y="42"/>
      <point x="231" y="42" type="curve" smooth="yes"/>
      <point x="327" y="42"/>
      <point x="405" y="117"/>
      <point x="405" y="209" type="curve" smooth="yes"/>
      <point x="405" y="301"/>
      <point x="327" y="376"/>
      <point x="231" y="376" type="curve" smooth="yes"/>
      <point x="194" y="376"/>
      <point x="158" y="365"/>
      <point x="128" y="345" type="curve" smooth="yes"/>
      <point x="122" y="340"/>
      <point x="113" y="340"/>
      <point x="106" y="343" type="curve" smooth="yes"/>
      <point x="99" y="347"/>
      <point x="95" y="354"/>
      <point x="95" y="362" type="curve" smooth="yes"/>
      <point x="95" y="618" type="line" smooth="yes"/>
      <point x="95" y="630"/>
      <point x="105" y="639"/>
      <point x="116" y="639" type="curve" smooth="yes"/>
      <point x="426" y="639" type="line"/>
      <point x="426" y="616"/>
      <point x="407" y="597"/>
      <point x="383" y="597" type="curve" smooth="yes"/>
      <point x="137" y="597" type="line"/>
      <point x="137" y="398" type="line"/>
      <point x="166" y="412"/>
      <point x="198" y="419"/>
    </contour>
  </outline>
</glyph>
<glyph name="six" format="2">
  <advance width="501"/>
  <unicode hex="0036"/>
  <outline>
    <contour>
      <point x="434" y="202" type="curve" smooth="yes"/>
      <point x="434.753" y="195.158"/>
      <point x="435.12" y="188.379"/>
      <point x="435.12" y="181.682" type="curve" smooth="yes"/>
      <point x="435.12" y="81.6908"/>
      <point x="353.283" y="0"/>
      <point x="253" y="0" type="curve" smooth="yes"/>
      <point x="153" y="0"/>
      <point x="71" y="81"/>
      <point x="71" y="181" type="curve" smooth="yes"/>
      <point x="71" y="182" type="line" smooth="yes"/>
      <point x="71" y="496"/>
      <point x="302" y="656"/>
      <point x="312" y="662" type="curve"/>
      <point x="317.217" y="654.375"/>
      <point x="319.696" y="645.623"/>
      <point x="319.696" y="636.907" type="curve" smooth="yes"/>
      <point x="319.696" y="623.904"/>
      <point x="314.178" y="610.981"/>
      <point x="304" y="602" type="curve" smooth="yes"/>
      <point x="256" y="559"/>
      <point x="166" y="462"/>
      <point x="130" y="315" type="curve"/>
      <point x="161.864" y="344.349"/>
      <point x="204.276" y="363.15"/>
      <point x="251.338" y="363.15" type="curve" smooth="yes"/>
      <point x="260.4" y="363.15"/>
      <point x="269.635" y="362.453"/>
      <point x="279" y="361" type="curve" smooth="yes"/>
      <point x="360" y="350"/>
      <point x="424" y="284"/>
    </contour>
    <contour>
      <point x="242" y="42" type="curve" smooth="yes"/>
      <point x="245.523" y="41.7422"/>
      <point x="249.021" y="41.6155"/>
      <point x="252.488" y="41.6155" type="curve" smooth="yes"/>
      <point x="329.718" y="41.6155"/>
      <point x="392" y="104.48"/>
      <point x="392" y="182" type="curve" smooth="yes"/>
      <point x="392" y="258.896"/>
      <point x="329.816" y="321.016"/>
      <point x="252.792" y="321.016" type="curve" smooth="yes"/>
      <point x="231.653" y="321.016"/>
      <point x="209.396" y="316.337"/>
      <point x="187" y="306" type="curve" smooth="yes"/>
      <point x="142" y="285"/>
      <point x="115" y="239"/>
      <point x="113" y="189" type="curve" smooth="yes"/>
      <point x="112.991" y="188.328"/>
      <point x="112.987" y="187.658"/>
      <point x="112.987" y="186.987" type="curve" smooth="yes"/>
      <point x="112.987" y="112.823"/>
      <point x="167.672" y="47.9463"/>
    </contour>
  </outline>
</glyph>
<glyph name="nine" format="2">
  <advance width="501"/>
  <unicode hex="0039"/>
  <outline>
    <contour>
      <point x="313" y="336" type="curve" smooth="yes"/>
      <point x="358" y="357"/>
      <point x="386" y="403"/>
      <point x="387" y="453" type="curve" smooth="yes"/>
      <point x="387.035" y="454.301"/>
      <point x="387.052" y="455.599"/>
      <point x="387.052" y="456.894" type="curve" smooth="yes"/>
      <point x="387.052" y="530.271"/>
      <point x="331.699" y="594.104"/>
      <point x="258" y="600" type="curve" smooth="yes"/>
      <point x="254.518" y="600.258"/>
      <point x="251.059" y="600.385"/>
      <point x="247.626" y="600.385" type="curve" smooth="yes"/>
      <point x="171.196" y="600.385"/>
      <point x="108" y="537.561"/>
      <point x="108" y="461" type="curve" smooth="yes"/>
      <point x="108" y="383.941"/>
      <point x="171.066" y="321.103"/>
      <point x="248.094" y="321.103" type="curve" smooth="yes"/>
      <point x="269.027" y="321.103"/>
      <point x="290.991" y="325.743"/>
    </contour>
    <contour>
      <point x="430" y="461" type="curve" smooth="yes"/>
      <point x="430" y="460" type="line"/>
      <point x="429" y="146"/>
      <point x="199" y="-14"/>
      <point x="189" y="-20" type="curve"/>
      <point x="183.65" y="-12.1807"/>
      <point x="181.01" y="-3.1758"/>
      <point x="181.01" y="5.76002" type="curve" smooth="yes"/>
      <point x="181.01" y="18.5372"/>
      <point x="186.408" y="31.1731"/>
      <point x="197" y="40" type="curve" smooth="yes"/>
      <point x="245" y="83"/>
      <point x="334" y="180"/>
      <point x="371" y="327" type="curve"/>
      <point x="339.136" y="297.651"/>
      <point x="296.021" y="278.85"/>
      <point x="248.732" y="278.85" type="curve" smooth="yes"/>
      <point x="239.626" y="278.85"/>
      <point x="230.365" y="279.547"/>
      <point x="221" y="281" type="curve" smooth="yes"/>
      <point x="141" y="292"/>
      <point x="76" y="359"/>
      <point x="67" y="440" type="curve" smooth="yes"/>
      <point x="66.2467" y="446.842"/>
      <point x="65.8796" y="453.621"/>
      <point x="65.8796" y="460.318" type="curve" smooth="yes"/>
      <point x="65.8796" y="560.309"/>
      <point x="147.717" y="642"/>
      <point x="248" y="642" type="curve" smooth="yes"/>
      <point x="348" y="642"/>
      <point x="430" y="561"/>
    </contour>
  </outline>
</glyph>
<glyph name="equal" format="2">
  <advance width="334"/>
  <unicode hex="003D"/>
  <outline>
    <contour>
      <point x="89.3301" y="379.51" type="line" smooth="yes"/>
      <point x="65.9502" y="379.51"/>
      <point x="47" y="398.46"/>
      <point x="47" y="421.84" type="curve"/>
      <point x="244.65" y="421.84" type="line" smooth="yes"/>
      <point x="268.03" y="421.84"/>
      <point x="286.98" y="402.89"/>
      <point x="286.98" y="379.51" type="curve"/>
    </contour>
    <contour>
      <point x="244.65" y="272.33" type="line" smooth="yes"/>
      <point x="268.03" y="272.33"/>
      <point x="286.98" y="253.38"/>
      <point x="286.98" y="230" type="curve"/>
      <point x="89.3301" y="230" type="line" smooth="yes"/>
      <point x="65.9502" y="230"/>
      <point x="47" y="248.95"/>
      <point x="47" y="272.33" type="curve"/>
    </contour>
  </outline>
</glyph>
<glyph name="K" format="2">
  <advance width="619"/>
  <unicode hex="004B"/>
  <outline>
    <contour>
      <point x="599.788" y="639.937" type="curve"/>
      <point x="137.371" y="317.459" type="line"/>
      <point x="599.393" y="-0.0507812" type="line"/>
      <point x="550.714" y="-0.0507812"/>
      <point x="503.179" y="14.708"/>
      <point x="463.051" y="42.2783" type="curve" smooth="yes"/>
      <point x="121.328" y="277.12" type="line"/>
      <point x="121.328" y="42.3066" type="line" smooth="yes"/>
      <point x="121.328" y="18.9268"/>
      <point x="102.379" y="-0.0224609"/>
      <point x="78.999" y="-0.0224609" type="curve"/>
      <point x="78.999" y="597.579" type="line" smooth="yes"/>
      <point x="78.999" y="620.959"/>
      <point x="97.9482" y="639.908"/>
      <point x="121.328" y="639.908" type="curve"/>
      <point x="121.328" y="357.898" type="line"/>
      <point x="465.082" y="597.607" type="line" smooth="yes"/>
      <point x="504.604" y="625.164"/>
      <point x="551.617" y="639.937"/>
    </contour>
  </outline>
</glyph>
<glyph name="O" format="2">
  <advance width="734"/>
  <unicode hex="004F"/>
  <outline>
    <contour>
      <point x="366.966" y="41.8828" type="curve" smooth="yes"/>
      <point x="520.056" y="41.8828"/>
      <point x="644.602" y="166.429"/>
      <point x="644.602" y="319.519" type="curve" smooth="yes"/>
      <point x="644.602" y="472.608"/>
      <point x="520.056" y="597.154"/>
      <point x="366.966" y="597.154" type="curve" smooth="yes"/>
      <point x="213.876" y="597.154"/>
      <point x="89.3301" y="472.608"/>
      <point x="89.3301" y="319.519" type="curve" smooth="yes"/>
      <point x="89.3301" y="166.429"/>
      <point x="213.876" y="41.8828"/>
    </contour>
    <contour>
      <point x="366.965" y="639.484" type="curve" smooth="yes"/>
      <point x="543.688" y="639.484"/>
      <point x="686.931" y="496.229"/>
      <point x="686.931" y="319.519" type="curve" smooth="yes"/>
      <point x="686.931" y="142.809"/>
      <point x="543.675" y="-0.447266"/>
      <point x="366.965" y="-0.447266" type="curve" smooth="yes"/>
      <point x="190.255" y="-0.447266"/>
      <point x="46.999" y="142.809"/>
      <point x="46.999" y="319.519" type="curve" smooth="yes"/>
      <point x="46.999" y="496.229"/>
      <point x="190.255" y="639.484"/>
    </contour>
  </outline>
</glyph>
<glyph name="X" format="2">
  <advance width="712"/>
  <unicode hex="0058"/>
  <outline>
    <contour>
      <point x="632.183" y="640.975" type="curve"/>
      <point x="382.893" y="320.487" type="line"/>
      <point x="632.168" y="0" type="line"/>
      <point x="598.333" y="-0"/>
      <point x="566.389" y="15.6191"/>
      <point x="545.619" y="42.3291" type="curve" smooth="yes"/>
      <point x="356.084" y="286.018" type="line"/>
      <point x="166.549" y="42.3291" type="line" smooth="yes"/>
      <point x="145.779" y="15.6191"/>
      <point x="113.835" y="0"/>
      <point x="80" y="0" type="curve"/>
      <point x="329.275" y="320.487" type="line"/>
      <point x="80" y="640.975" type="line"/>
      <point x="113.835" y="640.975"/>
      <point x="145.779" y="625.355"/>
      <point x="166.549" y="598.646" type="curve" smooth="yes"/>
      <point x="356.099" y="354.972" type="line"/>
      <point x="545.634" y="598.646" type="line" smooth="yes"/>
      <point x="566.403" y="625.355"/>
      <point x="598.348" y="640.975"/>
    </contour>
  </outline>
</glyph>
<glyph name="bracketright" format="2">
  <advance width="246"/>
  <unicode hex="005D"/>
  <outline>
    <contour>
      <point x="71.0986" y="639.702" type="curve"/>
      <point x="123.897" y="639.646"/>
      <point x="166.819" y="596.685"/>
      <point x="166.819" y="543.886" type="curve" smooth="yes"/>
      <point x="166.819" y="96.002" type="line" smooth="yes"/>
      <point x="166.819" y="43.1895"/>
      <point x="123.897" y="0.225586"/>
      <point x="71.0986" y="0.168945" type="curve" smooth="yes"/>
      <point x="71.042" y="0.168945"/>
      <point x="71" y="0.267578"/>
      <point x="71" y="0.267578" type="curve"/>
      <point x="71" y="22.335" type="line" smooth="yes"/>
      <point x="71" y="32.9736"/>
      <point x="78.1533" y="41.8906"/>
      <point x="88.2275" y="45.333" type="curve" smooth="yes"/>
      <point x="109.293" y="52.5146"/>
      <point x="124.489" y="72.5078"/>
      <point x="124.489" y="95.9863" type="curve" smooth="yes"/>
      <point x="124.489" y="543.87" type="line" smooth="yes"/>
      <point x="124.489" y="567.349"/>
      <point x="109.293" y="587.342"/>
      <point x="88.2275" y="594.523" type="curve" smooth="yes"/>
      <point x="78.1533" y="597.966"/>
      <point x="71" y="606.883"/>
      <point x="71" y="617.521" type="curve" smooth="yes"/>
      <point x="71" y="639.604" type="line" smooth="yes"/>
      <point x="71" y="639.66"/>
      <point x="71.0986" y="639.702"/>
    </contour>
  </outline>
</glyph>
<glyph name="i" format="2">
  <advance width="187"/>
  <unicode hex="0069"/>
  <outline>
    <contour>
      <point x="94" y="640.33" type="curve" smooth="yes"/>
      <point x="116.08" y="640.33"/>
      <point x="133.979" y="622.42"/>
      <point x="133.979" y="600.33" type="curve" smooth="yes"/>
      <point x="133.979" y="578.23"/>
      <point x="116.09" y="560.32"/>
      <point x="94" y="560.32" type="curve" smooth="yes"/>
      <point x="71.9004" y="560.32"/>
      <point x="54" y="578.23"/>
      <point x="54" y="600.33" type="curve" smooth="yes"/>
      <point x="54" y="622.42"/>
      <point x="71.9199" y="640.33"/>
    </contour>
    <contour>
      <point x="72.4199" y="437.88" type="line" smooth="yes"/>
      <point x="72.4199" y="461.26"/>
      <point x="91.3701" y="480.21"/>
      <point x="114.75" y="480.21" type="curve"/>
      <point x="114.75" y="42.8096" type="line" smooth="yes"/>
      <point x="114.75" y="19.4297"/>
      <point x="95.7998" y="0.479492"/>
      <point x="72.4199" y="0.479492" type="curve"/>
    </contour>
  </outline>
</glyph>
<glyph name="j" format="2">
  <advance width="188"/>
  <unicode hex="006A"/>
  <outline>
    <contour>
      <point x="72.8252" y="434.994" type="line" smooth="yes"/>
      <point x="72.8252" y="458.374"/>
      <point x="91.7744" y="477.323"/>
      <point x="115.154" y="477.323" type="curve"/>
      <point x="115.154" y="-58.5625" type="line" smooth="yes"/>
      <point x="115.154" y="-158.459"/>
      <point x="33.8965" y="-239.717"/>
      <point x="-66" y="-239.717" type="curve"/>
      <point x="-66" y="-217.974"/>
      <point x="-51.749" y="-198.375"/>
      <point x="-30.7119" y="-192.844" type="curve" smooth="yes"/>
      <point x="28.8027" y="-177.196"/>
      <point x="72.8252" y="-122.931"/>
      <point x="72.8252" y="-58.5625" type="curve" smooth="yes"/>
    </contour>
    <contour>
      <point x="93.9893" y="557.311" type="curve" smooth="yes"/>
      <point x="71.8975" y="557.311"/>
      <point x="53.9883" y="575.22"/>
      <point x="53.9883" y="597.312" type="curve" smooth="yes"/>
      <point x="53.9883" y="619.403"/>
      <point x="71.8975" y="637.312"/>
      <point x="93.9893" y="637.312" type="curve" smooth="yes"/>
      <point x="116.081" y="637.312"/>
      <point x="133.99" y="619.403"/>
      <point x="133.99" y="597.312" type="curve" smooth="yes"/>
      <point x="133.99" y="575.22"/>
      <point x="116.081" y="557.311"/>
    </contour>
  </outline>
</glyph>
<glyph name="l" format="2">
  <advance width="187"/>
  <unicode hex="006C"/>
  <outline>
    <contour>
      <point x="72" y="0.381836" type="curve"/>
      <point x="72" y="597.997" type="line" smooth="yes"/>
      <point x="72" y="621.377"/>
      <point x="90.9492" y="640.326"/>
      <point x="114.329" y="640.326" type="curve"/>
      <point x="114.329" y="42.7109" type="line" smooth="yes"/>
      <point x="114.329" y="19.3311"/>
      <point x="95.3799" y="0.381836"/>
    </contour>
  </outline>
</glyph>
<glyph name="o" format="2">
  <advance width="574"/>
  <unicode hex="006F"/>
  <unicode hex="00F6"/>
  <unicode hex="00F6"/>
  <outline>
    <contour>
      <point x="286.978" y="480.337" type="curve" smooth="yes"/>
      <point x="419.51" y="480.337"/>
      <point x="526.955" y="372.892"/>
      <point x="526.955" y="240.359" type="curve" smooth="yes"/>
      <point x="526.955" y="107.827"/>
      <point x="419.51" y="0.381836"/>
      <point x="286.978" y="0.381836" type="curve" smooth="yes"/>
      <point x="154.445" y="0.381836"/>
      <point x="47" y="107.827"/>
      <point x="47" y="240.359" type="curve" smooth="yes"/>
      <point x="47" y="372.892"/>
      <point x="154.445" y="480.337"/>
    </contour>
    <contour>
      <point x="286.978" y="42.7109" type="curve" smooth="yes"/>
      <point x="395.961" y="42.7109"/>
      <point x="484.626" y="131.376"/>
      <point x="484.626" y="240.359" type="curve" smooth="yes"/>
      <point x="484.626" y="349.343"/>
      <point x="395.961" y="438.008"/>
      <point x="286.978" y="438.008" type="curve" smooth="yes"/>
      <point x="177.994" y="438.008"/>
      <point x="89.3291" y="349.343"/>
      <point x="89.3291" y="240.359" type="curve" smooth="yes"/>
      <point x="89.3291" y="131.376"/>
      <point x="177.994" y="42.7109"/>
    </contour>
  </outline>
</glyph>
<glyph name="x" format="2">
  <advance width="588"/>
  <unicode hex="0078"/>
  <outline>
    <contour>
      <point x="563.752" y="480.294" type="curve"/>
      <point x="323.803" y="240.345" type="line"/>
      <point x="563.752" y="0.395508" type="line"/>
      <point x="525.43" y="0.395508"/>
      <point x="488.674" y="15.6201"/>
      <point x="461.569" y="42.7246" type="curve" smooth="yes"/>
      <point x="293.876" y="210.418" type="line"/>
      <point x="126.183" y="42.7246" type="line" smooth="yes"/>
      <point x="99.0781" y="15.6201"/>
      <point x="62.3223" y="0.395508"/>
      <point x="24" y="0.395508" type="curve"/>
      <point x="263.949" y="240.345" type="line"/>
      <point x="24" y="480.294" type="line"/>
      <point x="62.3223" y="480.294"/>
      <point x="99.0781" y="465.069"/>
      <point x="126.183" y="437.965" type="curve" smooth="yes"/>
      <point x="293.876" y="270.271" type="line"/>
      <point x="461.569" y="437.965" type="line" smooth="yes"/>
      <point x="488.674" y="465.069"/>
      <point x="525.43" y="480.294"/>
    </contour>
  </outline>
</glyph>
<glyph name="verticalbar" format="2">
  <advance width="203"/>
  <unicode hex="007C"/>
  <outline>
    <contour>
      <point x="80" y="640.179" type="line"/>
      <point x="103.38" y="640.179"/>
      <point x="122.329" y="621.229"/>
      <point x="122.329" y="597.85" type="curve" smooth="yes"/>
      <point x="122.329" y="0.248047" type="line"/>
      <point x="98.9492" y="0.248047"/>
      <point x="80" y="19.1973"/>
      <point x="80" y="42.5771" type="curve" smooth="yes"/>
    </contour>
  </outline>
</glyph>
<glyph name="twosuperior" format="2">
  <advance width="324"/>
  <unicode hex="00B2"/>
  <outline>
    <contour>
      <point x="152" y="522" type="line"/>
      <point x="200" y="522" type="line" smooth="yes"/>
      <point x="223" y="522"/>
      <point x="242" y="503"/>
      <point x="242" y="480" type="curve"/>
      <point x="101" y="480" type="line" smooth="yes"/>
      <point x="93" y="480"/>
      <point x="85" y="485"/>
      <point x="82" y="493" type="curve" smooth="yes"/>
      <point x="78" y="501"/>
      <point x="80" y="510"/>
      <point x="86" y="516" type="curve" smooth="yes"/>
      <point x="191" y="621" type="line" smooth="yes"/>
      <point x="198.607" y="628.607"/>
      <point x="201.393" y="637.421"/>
      <point x="201.393" y="645.656" type="curve" smooth="yes"/>
      <point x="201.393" y="650.411"/>
      <point x="200.464" y="654.974"/>
      <point x="199" y="659" type="curve" smooth="yes"/>
      <point x="194" y="671"/>
      <point x="184" y="679"/>
      <point x="171" y="680" type="curve"/>
      <point x="168" y="680" type="line" smooth="yes"/>
      <point x="157" y="680"/>
      <point x="147" y="677"/>
      <point x="140" y="670" type="curve" smooth="yes"/>
      <point x="127.362" y="660.336"/>
      <point x="113.065" y="655.093"/>
      <point x="98.3447" y="655.093" type="curve" smooth="yes"/>
      <point x="93.2637" y="655.093"/>
      <point x="88.1318" y="655.717"/>
      <point x="83" y="657" type="curve"/>
      <point x="93" y="695"/>
      <point x="128" y="722"/>
      <point x="168" y="722" type="curve" smooth="yes"/>
      <point x="174" y="722" type="line"/>
      <point x="203" y="720"/>
      <point x="228" y="702"/>
      <point x="239" y="674" type="curve" smooth="yes"/>
      <point x="242.451" y="664.587"/>
      <point x="244.131" y="655.076"/>
      <point x="244.131" y="645.775" type="curve" smooth="yes"/>
      <point x="244.131" y="625.433"/>
      <point x="236.098" y="606.098"/>
      <point x="221" y="591" type="curve" smooth="yes"/>
    </contour>
  </outline>
</glyph>
<glyph name="Agrave" format="2">
  <advance width="699"/>
  <unicode hex="00C0"/>
  <outline>
    <contour>
      <point x="190" y="252" type="line"/>
      <point x="509" y="252" type="line"/>
      <point x="349" y="571" type="line"/>
    </contour>
    <contour>
      <point x="368" y="627" type="curve" smooth="yes"/>
      <point x="682" y="0" type="line"/>
      <point x="653" y="0"/>
      <point x="626" y="17"/>
      <point x="613" y="43" type="curve" smooth="yes"/>
      <point x="530" y="210" type="line"/>
      <point x="169" y="210" type="line"/>
      <point x="86" y="43" type="line" smooth="yes"/>
      <point x="73" y="17"/>
      <point x="46" y="0"/>
      <point x="17" y="0" type="curve"/>
      <point x="331" y="627" type="line" smooth="yes"/>
      <point x="334" y="635"/>
      <point x="341" y="639"/>
      <point x="349" y="639" type="curve" smooth="yes"/>
      <point x="357" y="639"/>
      <point x="365" y="635"/>
    </contour>
    <contour>
      <point x="400" y="688" type="line"/>
      <point x="391.5" y="680"/>
      <point x="380.5" y="676"/>
      <point x="369.625" y="676" type="curve" smooth="yes"/>
      <point x="358.75" y="676"/>
      <point x="348" y="680"/>
      <point x="340" y="688" type="curve" smooth="yes"/>
      <point x="290" y="738" type="line"/>
      <point x="298" y="746.5"/>
      <point x="308.75" y="750.75"/>
      <point x="319.5" y="750.75" type="curve" smooth="yes"/>
      <point x="330.25" y="750.75"/>
      <point x="341" y="746.5"/>
      <point x="349" y="738" type="curve" smooth="yes"/>
    </contour>
  </outline>
</glyph>
<glyph name="Aacute" format="2">
  <advance width="699"/>
  <unicode hex="00C1"/>
  <outline>
    <contour>
      <point x="190" y="252" type="line"/>
      <point x="509" y="252" type="line"/>
      <point x="349" y="571" type="line"/>
    </contour>
    <contour>
      <point x="368" y="627" type="curve" smooth="yes"/>
      <point x="682" y="0" type="line"/>
      <point x="653" y="0"/>
      <point x="626" y="17"/>
      <point x="613" y="43" type="curve" smooth="yes"/>
      <point x="530" y="210" type="line"/>
      <point x="169" y="210" type="line"/>
      <point x="85" y="43" type="line" smooth="yes"/>
      <point x="73" y="17"/>
      <point x="46" y="0"/>
      <point x="17" y="0" type="curve"/>
      <point x="331" y="627" type="line" smooth="yes"/>
      <point x="334" y="635"/>
      <point x="341" y="639"/>
      <point x="349" y="639" type="curve" smooth="yes"/>
      <point x="357" y="639"/>
      <point x="365" y="635"/>
    </contour>
    <contour>
      <point x="354" y="688" type="line" smooth="yes"/>
      <point x="346" y="680"/>
      <point x="335.25" y="676"/>
      <point x="324.5" y="676" type="curve" smooth="yes"/>
      <point x="313.75" y="676"/>
      <point x="303" y="680"/>
      <point x="295" y="688" type="curve"/>
      <point x="345" y="738" type="line" smooth="yes"/>
      <point x="353" y="746.5"/>
      <point x="363.75" y="750.75"/>
      <point x="374.5" y="750.75" type="curve" smooth="yes"/>
      <point x="385.25" y="750.75"/>
      <point x="396" y="746.5"/>
      <point x="404" y="738" type="curve"/>
    </contour>
  </outline>
</glyph>
<glyph name="Ccedilla" format="2">
  <advance width="554"/>
  <unicode hex="00C7"/>
  <outline>
    <contour>
      <point x="388" y="-29" type="line" smooth="yes"/>
      <point x="422" y="-29"/>
      <point x="452" y="-54"/>
      <point x="456" y="-88" type="curve" smooth="yes"/>
      <point x="456.139" y="-89.8047"/>
      <point x="456.207" y="-91.5957"/>
      <point x="456.207" y="-93.3721" type="curve" smooth="yes"/>
      <point x="456.207" y="-129.982"/>
      <point x="427.242" y="-160"/>
      <point x="391" y="-160" type="curve" smooth="yes"/>
      <point x="274" y="-160" type="line"/>
      <point x="274" y="-136"/>
      <point x="293" y="-118"/>
      <point x="316" y="-118" type="curve" smooth="yes"/>
      <point x="391" y="-118" type="line" smooth="yes"/>
      <point x="403.431" y="-118"/>
      <point x="413.497" y="-107.751"/>
      <point x="413.497" y="-95.6523" type="curve" smooth="yes"/>
      <point x="413.497" y="-94.126"/>
      <point x="413.336" y="-92.5693"/>
      <point x="413" y="-91" type="curve" smooth="yes"/>
      <point x="411" y="-80"/>
      <point x="401" y="-72"/>
      <point x="389" y="-72" type="curve" smooth="yes"/>
      <point x="295" y="-72" type="line" smooth="yes"/>
      <point x="286" y="-72"/>
      <point x="279" y="-67"/>
      <point x="275" y="-59" type="curve" smooth="yes"/>
      <point x="272" y="-51"/>
      <point x="274" y="-42"/>
      <point x="280" y="-36" type="curve" smooth="yes"/>
      <point x="320" y="5" type="line"/>
      <point x="166" y="27"/>
      <point x="47" y="160"/>
      <point x="47" y="320" type="curve" smooth="yes"/>
      <point x="47" y="496"/>
      <point x="190" y="639"/>
      <point x="366" y="639" type="curve" smooth="yes"/>
      <point x="423" y="639"/>
      <point x="479" y="624"/>
      <point x="528" y="595" type="curve"/>
      <point x="519.311" y="580.518"/>
      <point x="504.33" y="572.328"/>
      <point x="488.752" y="572.328" type="curve" smooth="yes"/>
      <point x="482.816" y="572.328"/>
      <point x="476.794" y="573.517"/>
      <point x="471" y="576" type="curve" smooth="yes"/>
      <point x="438" y="589"/>
      <point x="402" y="597"/>
      <point x="366" y="597" type="curve" smooth="yes"/>
      <point x="213" y="597"/>
      <point x="89" y="472"/>
      <point x="89" y="320" type="curve" smooth="yes"/>
      <point x="89" y="167"/>
      <point x="213" y="43"/>
      <point x="366" y="43" type="curve" smooth="yes"/>
      <point x="402" y="43"/>
      <point x="438" y="51"/>
      <point x="471" y="64" type="curve" smooth="yes"/>
      <point x="476.794" y="66.4834"/>
      <point x="482.816" y="67.6719"/>
      <point x="488.752" y="67.6719" type="curve" smooth="yes"/>
      <point x="504.33" y="67.6719"/>
      <point x="519.311" y="59.4824"/>
      <point x="528" y="45" type="curve"/>
      <point x="482" y="18"/>
      <point x="429" y="3"/>
      <point x="376" y="1" type="curve"/>
      <point x="346" y="-29" type="line"/>
    </contour>
  </outline>
</glyph>
<glyph name="icircumflex" format="2">
  <advance width="189"/>
  <unicode hex="00EE"/>
  <outline>
    <contour>
      <point x="124" y="620" type="curve" smooth="yes"/>
      <point x="174" y="569" type="line"/>
      <point x="166" y="561"/>
      <point x="155.25" y="557"/>
      <point x="144.375" y="557" type="curve" smooth="yes"/>
      <point x="133.5" y="557"/>
      <point x="122.5" y="561"/>
      <point x="114" y="569" type="curve" smooth="yes"/>
      <point x="94" y="590" type="line"/>
      <point x="74" y="569" type="line" smooth="yes"/>
      <point x="65.5" y="561"/>
      <point x="54.75" y="557"/>
      <point x="44" y="557" type="curve" smooth="yes"/>
      <point x="33.25" y="557"/>
      <point x="22.5" y="561"/>
      <point x="14" y="569" type="curve"/>
      <point x="64" y="620" type="line" smooth="yes"/>
      <point x="72" y="628"/>
      <point x="83" y="632"/>
      <point x="94" y="632" type="curve" smooth="yes"/>
      <point x="105" y="632"/>
      <point x="116" y="628"/>
    </contour>
    <contour>
      <point x="73" y="437" type="line" smooth="yes"/>
      <point x="73" y="461"/>
      <point x="92" y="480"/>
      <point x="115" y="480" type="curve"/>
      <point x="115" y="42" type="line" smooth="yes"/>
      <point x="115" y="19"/>
      <point x="96" y="0"/>
      <point x="73" y="0" type="curve"/>
    </contour>
  </outline>
</glyph>
<glyph name="dotlessi" format="2">
  <advance width="163"/>
  <unicode hex="0131"/>
  <outline>
    <contour>
      <point x="60" y="400.202" type="line"/>
      <point x="83.3799" y="400.202"/>
      <point x="102.329" y="381.253"/>
      <point x="102.329" y="357.873" type="curve" smooth="yes"/>
      <point x="102.329" y="0.249023" type="line"/>
      <point x="78.9492" y="0.249023"/>
      <point x="60" y="19.1982"/>
      <point x="60" y="42.5781" type="curve" smooth="yes"/>
    </contour>
  </outline>
</glyph>
<glyph name="ilde" format="2">
  <advance width="415"/>
  <unicode hex="02DC"/>
  <outline>
    <contour>
      <point x="379" y="520" type="curve" smooth="yes"/>
      <point x="380" y="519" type="line"/>
      <point x="351" y="490"/>
      <point x="322" y="480"/>
      <point x="295" y="480" type="curve" smooth="yes"/>
      <point x="259" y="480"/>
      <point x="224" y="499"/>
      <point x="195" y="516" type="curve" smooth="yes"/>
      <point x="163.571" y="533.857"/>
      <point x="138.776" y="546.612"/>
      <point x="115.51" y="546.612" type="curve" smooth="yes"/>
      <point x="106.204" y="546.612"/>
      <point x="97.1429" y="544.571"/>
      <point x="88" y="540" type="curve" smooth="yes"/>
      <point x="80.6183" y="536.503"/>
      <point x="72.6329" y="534.667"/>
      <point x="64.7475" y="534.667" type="curve" smooth="yes"/>
      <point x="52.3361" y="534.667"/>
      <point x="40.1724" y="539.216"/>
      <point x="31" y="549" type="curve"/>
      <point x="30" y="549" type="line"/>
      <point x="59.313" y="578.313"/>
      <point x="87.7236" y="588.676"/>
      <point x="114.695" y="588.676" type="curve" smooth="yes"/>
      <point x="151.212" y="588.676"/>
      <point x="185.091" y="569.68"/>
      <point x="215" y="553" type="curve" smooth="yes"/>
      <point x="246.889" y="534.881"/>
      <point x="271.949" y="522.015"/>
      <point x="295.511" y="522.015" type="curve" smooth="yes"/>
      <point x="304.459" y="522.015"/>
      <point x="313.192" y="523.871"/>
      <point x="322" y="528" type="curve" smooth="yes"/>
      <point x="329.419" y="531.905"/>
      <point x="337.448" y="533.827"/>
      <point x="345.373" y="533.827" type="curve" smooth="yes"/>
      <point x="357.742" y="533.827"/>
      <point x="369.857" y="529.143"/>
    </contour>
  </outline>
</glyph>
<glyph name="endash" format="2">
  <advance width="399"/>
  <unicode hex="2013"/>
  <outline>
    <contour>
      <point x="316.64" y="362.02" type="line" smooth="yes"/>
      <point x="340.02" y="362.02"/>
      <point x="358.97" y="343.069"/>
      <point x="358.97" y="319.689" type="curve"/>
      <point x="81.3301" y="319.689" type="line" smooth="yes"/>
      <point x="57.9502" y="319.689"/>
      <point x="39" y="338.64"/>
      <point x="39" y="362.02" type="curve"/>
    </contour>
  </outline>
</glyph>
<glyph name="emdash" format="2">
  <advance width="799"/>
  <unicode hex="2014"/>
  <outline>
    <contour>
      <point x="716.589" y="362.02" type="line" smooth="yes"/>
      <point x="739.969" y="362.02"/>
      <point x="758.918" y="343.07"/>
      <point x="758.918" y="319.69" type="curve"/>
      <point x="81.3291" y="319.69" type="line" smooth="yes"/>
      <point x="57.9492" y="319.69"/>
      <point x="39" y="338.64"/>
      <point x="39" y="362.02" type="curve"/>
    </contour>
  </outline>
</glyph>
<glyph name="quotedblleft" format="2">
  <advance width="198"/>
  <unicode hex="201C"/>
  <outline>
    <contour>
      <point x="42" y="653" type="curve"/>
      <point x="78" y="533" type="line" smooth="yes"/>
      <point x="78.9904" y="529.204"/>
      <point x="79.4631" y="525.407"/>
      <point x="79.4631" y="521.682" type="curve" smooth="yes"/>
      <point x="79.4631" y="502.843"/>
      <point x="67.3686" y="485.845"/>
      <point x="49" y="480" type="curve"/>
      <point x="14" y="600" type="line" smooth="yes"/>
      <point x="12.7096" y="604.24"/>
      <point x="12.0988" y="608.48"/>
      <point x="12.0988" y="612.62" type="curve" smooth="yes"/>
      <point x="12.0988" y="630.936"/>
      <point x="24.0556" y="647.29"/>
    </contour>
    <contour>
      <point x="158" y="533" type="line" smooth="yes"/>
      <point x="158.99" y="529.204"/>
      <point x="159.463" y="525.407"/>
      <point x="159.463" y="521.682" type="curve" smooth="yes"/>
      <point x="159.463" y="502.843"/>
      <point x="147.369" y="485.845"/>
      <point x="129" y="480" type="curve"/>
      <point x="94" y="600" type="line" smooth="yes"/>
      <point x="92.7096" y="604.24"/>
      <point x="92.0988" y="608.48"/>
      <point x="92.0988" y="612.62" type="curve" smooth="yes"/>
      <point x="92.0988" y="630.936"/>
      <point x="104.056" y="647.29"/>
      <point x="122" y="653" type="curve"/>
    </contour>
  </outline>
</glyph>
<glyph name="dagger" format="2">
  <advance width="360"/>
  <unicode hex="2020"/>
  <outline>
    <contour>
      <point x="201.153" y="483.266" type="line"/>
      <point x="299.978" y="483.266" type="line"/>
      <point x="299.978" y="459.886"/>
      <point x="281.028" y="440.937"/>
      <point x="257.648" y="440.937" type="curve" smooth="yes"/>
      <point x="201.153" y="440.937" type="line"/>
      <point x="201.153" y="42.5781" type="line" smooth="yes"/>
      <point x="201.153" y="19.1982"/>
      <point x="182.204" y="0.249023"/>
      <point x="158.824" y="0.249023" type="curve"/>
      <point x="158.824" y="440.937" type="line"/>
      <point x="60" y="440.937" type="line"/>
      <point x="60" y="464.316"/>
      <point x="78.9492" y="483.266"/>
      <point x="102.329" y="483.266" type="curve" smooth="yes"/>
      <point x="158.824" y="483.266" type="line"/>
      <point x="158.824" y="517.891" type="line" smooth="yes"/>
      <point x="158.824" y="541.271"/>
      <point x="177.773" y="560.22"/>
      <point x="201.153" y="560.22" type="curve"/>
    </contour>
  </outline>
</glyph>
<glyph name="bullet" format="2">
  <advance width="270"/>
  <unicode hex="2022"/>
  <outline>
    <contour>
      <point x="134.987" y="479.843" type="curve" smooth="yes"/>
      <point x="179.165" y="479.843"/>
      <point x="214.976" y="444.032"/>
      <point x="214.976" y="399.854" type="curve" smooth="yes"/>
      <point x="214.976" y="355.677"/>
      <point x="179.165" y="319.866"/>
      <point x="134.987" y="319.866" type="curve" smooth="yes"/>
      <point x="90.8096" y="319.866"/>
      <point x="54.999" y="355.677"/>
      <point x="54.999" y="399.854" type="curve" smooth="yes"/>
      <point x="54.999" y="444.032"/>
      <point x="90.8096" y="479.843"/>
    </contour>
  </outline>
</glyph>
<glyph name="fraction" format="2">
  <advance width="468"/>
  <unicode hex="2044"/>
  <outline>
    <contour>
      <point x="356" y="606" type="line" smooth="yes"/>
      <point x="363.079" y="620.867"/>
      <point x="378.178" y="629.719"/>
      <point x="393.844" y="629.719" type="curve" smooth="yes"/>
      <point x="400.307" y="629.719"/>
      <point x="406.867" y="628.213"/>
      <point x="413" y="625" type="curve"/>
      <point x="112" y="23" type="line" smooth="yes"/>
      <point x="104.184" y="8.07763"/>
      <point x="89.2979" y="-0.280562"/>
      <point x="73.8017" y="-0.280562" type="curve" smooth="yes"/>
      <point x="67.4903" y="-0.280562"/>
      <point x="61.0776" y="1.10589"/>
      <point x="55" y="4" type="curve"/>
    </contour>
  </outline>
</glyph>
<glyph name="minus" format="2">
  <advance width="399"/>
  <unicode hex="2212"/>
  <outline>
    <contour>
      <point x="82.3291" y="402.02" type="curve" smooth="yes"/>
      <point x="359.951" y="402.02" type="line"/>
      <point x="359.951" y="378.64"/>
      <point x="341.002" y="359.69"/>
      <point x="317.622" y="359.69" type="curve" smooth="yes"/>
      <point x="40" y="359.69" type="line"/>
      <point x="40" y="383.07"/>
      <point x="58.9492" y="402.02"/>
    </contour>
  </outline>
</glyph>
<glyph name="G.alt1" format="2">
  <advance width="712"/>
  <unicode hex="F007"/>
  <outline>
    <contour>
      <point x="398" y="43" type="curve" smooth="yes"/>
      <point x="474" y="43"/>
      <point x="545" y="82"/>
      <point x="586" y="145" type="curve"/>
      <point x="545" y="209"/>
      <point x="474" y="248"/>
      <point x="398" y="248" type="curve" smooth="yes"/>
      <point x="315" y="248"/>
      <point x="238" y="202"/>
      <point x="199" y="129" type="curve"/>
      <point x="248" y="77"/>
      <point x="316" y="44"/>
      <point x="393" y="42" type="curve" smooth="yes"/>
      <point x="394" y="43"/>
      <point x="396" y="43"/>
    </contour>
    <contour>
      <point x="630" y="156" type="curve" smooth="yes"/>
      <point x="633" y="149"/>
      <point x="633" y="141"/>
      <point x="630" y="135" type="curve" smooth="yes"/>
      <point x="583" y="54"/>
      <point x="498" y="4"/>
      <point x="406" y="1" type="curve" smooth="yes"/>
      <point x="404" y="-0"/>
      <point x="402" y="-0"/>
      <point x="400" y="-0" type="curve" smooth="yes"/>
      <point x="315" y="-0"/>
      <point x="239" y="33"/>
      <point x="181" y="86" type="curve"/>
      <point x="179" y="78"/>
      <point x="177" y="70"/>
      <point x="175" y="61" type="curve" smooth="yes"/>
      <point x="171" y="39"/>
      <point x="153" y="22"/>
      <point x="130" y="22" type="curve"/>
      <point x="130" y="56"/>
      <point x="136" y="90"/>
      <point x="149" y="122" type="curve"/>
      <point x="106" y="176"/>
      <point x="80" y="245"/>
      <point x="80" y="320" type="curve" smooth="yes"/>
      <point x="80" y="496"/>
      <point x="224" y="640"/>
      <point x="400" y="640" type="curve" smooth="yes"/>
      <point x="474" y="640"/>
      <point x="545" y="614"/>
      <point x="602" y="568" type="curve"/>
      <point x="593.198" y="556.683"/>
      <point x="580.047" y="550.9"/>
      <point x="566.524" y="550.9" type="curve" smooth="yes"/>
      <point x="558.54" y="550.9"/>
      <point x="550.425" y="552.916"/>
      <point x="543" y="557" type="curve" smooth="yes"/>
      <point x="500" y="583"/>
      <point x="451" y="597"/>
      <point x="400" y="597" type="curve" smooth="yes"/>
      <point x="247" y="597"/>
      <point x="122" y="473"/>
      <point x="122" y="320" type="curve" smooth="yes"/>
      <point x="122" y="262"/>
      <point x="140" y="208"/>
      <point x="170" y="164" type="curve"/>
      <point x="219" y="242"/>
      <point x="306" y="290"/>
      <point x="398" y="290" type="curve" smooth="yes"/>
      <point x="493" y="290"/>
      <point x="582" y="239"/>
    </contour>
  </outline>
</glyph>
<glyph name="H.alt1" format="2">
  <advance width="681"/>
  <unicode hex="F008"/>
  <outline>
    <contour>
      <point x="559" y="598" type="line" smooth="yes"/>
      <point x="559" y="621"/>
      <point x="578" y="640"/>
      <point x="601" y="640" type="curve"/>
      <point x="601" y="362" type="line" smooth="yes"/>
      <point x="601" y="339"/>
      <point x="582" y="320"/>
      <point x="559" y="320" type="curve"/>
    </contour>
    <contour>
      <point x="559" y="118" type="line" smooth="yes"/>
      <point x="559" y="142"/>
      <point x="578" y="161"/>
      <point x="601" y="161" type="curve"/>
      <point x="601" y="42" type="line" smooth="yes"/>
      <point x="601" y="19"/>
      <point x="582" y="0"/>
      <point x="559" y="0" type="curve"/>
    </contour>
    <contour>
      <point x="529" y="231" type="curve" smooth="yes"/>
      <point x="537.143" y="236.143"/>
      <point x="546.388" y="238.714"/>
      <point x="555.475" y="238.714" type="curve" smooth="yes"/>
      <point x="567.592" y="238.714"/>
      <point x="579.429" y="234.143"/>
      <point x="588" y="225" type="curve"/>
      <point x="547" y="184"/>
      <point x="507" y="169"/>
      <point x="469" y="169" type="curve" smooth="yes"/>
      <point x="418" y="169"/>
      <point x="369" y="196"/>
      <point x="324" y="222" type="curve" smooth="yes"/>
      <point x="280.311" y="245.998"/>
      <point x="240.409" y="268.482"/>
      <point x="200.099" y="268.482" type="curve" smooth="yes"/>
      <point x="174.9" y="268.482"/>
      <point x="149.542" y="259.695"/>
      <point x="123" y="237" type="curve"/>
      <point x="123" y="42" type="line" smooth="yes"/>
      <point x="123" y="19"/>
      <point x="104" y="0"/>
      <point x="80" y="0" type="curve"/>
      <point x="80" y="254" type="line"/>
      <point x="80" y="255" type="line"/>
      <point x="80" y="255" type="line" smooth="yes"/>
      <point x="80" y="598" type="line" smooth="yes"/>
      <point x="80" y="621"/>
      <point x="99" y="640"/>
      <point x="123" y="640" type="curve"/>
      <point x="123" y="289" type="line"/>
      <point x="149.247" y="304.878"/>
      <point x="174.759" y="311.201"/>
      <point x="199.536" y="311.201" type="curve" smooth="yes"/>
      <point x="251.223" y="311.201"/>
      <point x="299.711" y="283.687"/>
      <point x="345" y="258" type="curve" smooth="yes"/>
      <point x="387.667" y="234"/>
      <point x="427.222" y="211.778"/>
      <point x="467.519" y="211.778" type="curve" smooth="yes"/>
      <point x="487.667" y="211.778"/>
      <point x="508" y="217.333"/>
    </contour>
  </outline>
</glyph>
<glyph name="Y.alt1" format="2">
  <advance width="682"/>
  <unicode hex="F017"/>
  <outline>
    <contour>
      <point x="560" y="598" type="line" smooth="yes"/>
      <point x="560" y="621"/>
      <point x="579" y="640"/>
      <point x="602" y="640" type="curve"/>
      <point x="602" y="560" type="line" smooth="yes"/>
      <point x="602" y="423"/>
      <point x="496" y="311"/>
      <point x="362" y="300" type="curve"/>
      <point x="362" y="42" type="line" smooth="yes"/>
      <point x="362" y="19"/>
      <point x="343" y="0"/>
      <point x="320" y="-0" type="curve"/>
      <point x="320" y="300" type="line"/>
      <point x="184" y="311"/>
      <point x="80" y="429"/>
      <point x="80" y="566" type="curve" smooth="yes"/>
      <point x="80" y="640" type="line"/>
      <point x="103" y="640"/>
      <point x="122" y="621"/>
      <point x="122" y="598" type="curve" smooth="yes"/>
      <point x="122" y="566" type="line" smooth="yes"/>
      <point x="122" y="449"/>
      <point x="213" y="347"/>
      <point x="330" y="341" type="curve" smooth="yes"/>
      <point x="333.572" y="340.83"/>
      <point x="337.127" y="340.746"/>
      <point x="340.662" y="340.746" type="curve" smooth="yes"/>
      <point x="461.814" y="340.746"/>
      <point x="560" y="439.516"/>
      <point x="560" y="560" type="curve" smooth="yes"/>
    </contour>
  </outline>
</glyph>
<glyph name="oneslashfour.liga" format="2">
  <advance width="556"/>
  <unicode hex="F019"/>
  <outline>
    <contour>
      <point x="448" y="95" type="line"/>
      <point x="463" y="95"/>
      <point x="476" y="82"/>
      <point x="476" y="67" type="curve" smooth="yes"/>
      <point x="476" y="52" type="line"/>
      <point x="448" y="52" type="line"/>
      <point x="448" y="42" type="line" smooth="yes"/>
      <point x="448" y="19"/>
      <point x="429" y="0"/>
      <point x="405" y="0" type="curve"/>
      <point x="405" y="52" type="line"/>
      <point x="320" y="52" type="line" smooth="yes"/>
      <point x="312" y="52"/>
      <point x="305" y="57"/>
      <point x="301" y="64" type="curve" smooth="yes"/>
      <point x="297" y="71"/>
      <point x="298" y="80"/>
      <point x="303" y="86" type="curve" smooth="yes"/>
      <point x="409" y="233" type="line" smooth="yes"/>
      <point x="415" y="240"/>
      <point x="424" y="243"/>
      <point x="433" y="241" type="curve" smooth="yes"/>
      <point x="442" y="238"/>
      <point x="448" y="230"/>
      <point x="448" y="221" type="curve" smooth="yes"/>
    </contour>
    <contour>
      <point x="405" y="95" type="line"/>
      <point x="405" y="155" type="line"/>
      <point x="361" y="95" type="line"/>
    </contour>
    <contour>
      <point x="147" y="415" type="line"/>
      <point x="140" y="408" type="line" smooth="yes"/>
      <point x="131.5" y="399.5"/>
      <point x="120.75" y="395.25"/>
      <point x="110" y="395.25" type="curve" smooth="yes"/>
      <point x="99.25" y="395.25"/>
      <point x="88.5" y="399.5"/>
      <point x="80" y="408" type="curve"/>
      <point x="153" y="481" type="line" smooth="yes"/>
      <point x="159" y="487"/>
      <point x="168" y="489"/>
      <point x="176" y="485" type="curve" smooth="yes"/>
      <point x="184" y="482"/>
      <point x="189" y="474"/>
      <point x="189" y="466" type="curve" smooth="yes"/>
      <point x="189" y="289" type="line" smooth="yes"/>
      <point x="189" y="265"/>
      <point x="170" y="246"/>
      <point x="147" y="246" type="curve"/>
    </contour>
    <contour>
      <point x="345" y="458" type="line" smooth="yes"/>
      <point x="352.106" y="472.922"/>
      <point x="366.786" y="481.281"/>
      <point x="382.223" y="481.281" type="curve" smooth="yes"/>
      <point x="388.51" y="481.281"/>
      <point x="394.922" y="479.894"/>
      <point x="401" y="477" type="curve"/>
      <point x="180" y="35" type="line" smooth="yes"/>
      <point x="172.921" y="20.1333"/>
      <point x="157.822" y="11.2807"/>
      <point x="142.511" y="11.2807" type="curve" smooth="yes"/>
      <point x="136.194" y="11.2807"/>
      <point x="129.841" y="12.7873"/>
      <point x="124" y="16" type="curve"/>
    </contour>
  </outline>
</glyph>
